HIERARCHY
ROOT Hips
{
	OFFSET	0.000000	0.000000	0.000000
	CHANNELS 6 Xposition Yposition Zposition Zrotation Xrotation Yrotation
	JOINT LeftUpLeg
	{
		OFFSET	12.811937	-7.635976	0.557276
		CHANNELS 3 Zrotation Xrotation Yrotation
		JOINT LeftLeg
		{
			OFFSET	-0.429270	-42.206159	-1.204951
			CHANNELS 3 Zrotation Xrotation Yrotation
			JOINT LeftFoot
			{
				OFFSET	-2.112259	-42.464481	-3.973220
				CHANNELS 3 Zrotation Xrotation Yrotation
				JOINT LeftFootHeel
				{
					OFFSET	0.387196	-5.329707	-3.419729
					CHANNELS 3 Zrotation Xrotation Yrotation
					End Site
					{
						OFFSET	0.327567	-0.000003	16.505428
					}
				}
			}
		}
	}
	JOINT RightUpLeg
	{
		OFFSET	-12.811937	-7.635976	0.557276
		CHANNELS 3 Zrotation Xrotation Yrotation
		JOINT RightLeg
		{
			OFFSET	0.429270	-42.206159	-1.204951
			CHANNELS 3 Zrotation Xrotation Yrotation
			JOINT RightFoot
			{
				OFFSET	2.112259	-42.464481	-3.973220
				CHANNELS 3 Zrotation Xrotation Yrotation
				JOINT RightFootHeel
				{
					OFFSET	-0.387198	-5.329707	-3.419729
					CHANNELS 3 Zrotation Xrotation Yrotation
					End Site
					{
						OFFSET	-0.327566	-0.000003	16.505428
					}
				}
			}
		}
	}
	JOINT Spine
	{
		OFFSET	0.000000	13.731315	-1.007646
		CHANNELS 3 Zrotation Xrotation Yrotation
		JOINT Spine1
		{
			OFFSET	0.000000	12.091746	-0.604589
			CHANNELS 3 Zrotation Xrotation Yrotation
			JOINT LeftShoulder
			{
				OFFSET	5.746115	20.990027	-0.833816
				CHANNELS 3 Zrotation Xrotation Yrotation
				JOINT LeftArm
				{
					OFFSET	10.881538	-1.359258	0.219250
					CHANNELS 3 Zrotation Xrotation Yrotation
					JOINT LeftForeArm
					{
						OFFSET	4.390314	-31.537147	0.202818
						CHANNELS 3 Zrotation Xrotation Yrotation
						JOINT LeftHand
						{
							OFFSET	3.168650	-24.865023	5.373370
							CHANNELS 3 Zrotation Xrotation Yrotation
							End Site
							{
								OFFSET	1.457528	-10.806075	2.170267
							}
						}
					}
				}
			}
			JOINT RightShoulder
			{
				OFFSET	-5.746115	20.990027	-0.833816
				CHANNELS 3 Zrotation Xrotation Yrotation
				JOINT RightArm
				{
					OFFSET	-10.881538	-1.359258	0.219250
					CHANNELS 3 Zrotation Xrotation Yrotation
					JOINT RightForeArm
					{
						OFFSET	-4.390314	-31.537147	0.202818
						CHANNELS 3 Zrotation Xrotation Yrotation
						JOINT RightHand
						{
							OFFSET	-3.168650	-24.865023	5.373370
							CHANNELS 3 Zrotation Xrotation Yrotation
							End Site
							{
								OFFSET	-1.457528	-10.806075	2.170267
							}
						}
					}
				}
			}
			JOINT Neck
			{
				OFFSET	0.000000	27.075639	0.680489
				CHANNELS 3 Zrotation Xrotation Yrotation
				JOINT Head
				{
					OFFSET	0.000000	12.391287	1.239129
					CHANNELS 3 Zrotation Xrotation Yrotation
					End Site
					{
						OFFSET	0.000000	13.818691	-0.105853
					}
				}
			}
		}
	}
}
MOTION
Frames:     6
Frame Time: 0.016667
1.670204	100.860654	7.467950	0.311133	3.119828	-6.888917	0.259296	1.893268	6.641662	1.307767	0.430005	9.411641	-4.656976	-0.599570	-8.485445	0.	0.	0.	-1.861511	-0.222989	-4.029971	1.288584	-2.014906	5.575958	2.520569	3.109436	7.975605	0.	0.	0.	1.084927	-5.444026	-1.765874	1.167620	-1.496246	-2.026853	5.376546	0.669787	-1.974947	64.927147	-62.419945	35.955212	-0.801373	-10.807552	13.531974	10.686512	10.108088	14.822670	-2.828670	1.079388	6.793923	-1.694237	-51.779743	18.375446	14.901711	-32.762737	8.595718	-14.522287	-5.057859	0.406133	-1.118368	3.848079	4.311976	-6.816666	2.668098	7.440063	
1.595643	100.750632	7.362367	0.293247	3.031421	-6.985500	0.188879	2.117445	6.351657	1.296155	0.120345	9.415443	-4.354033	-0.817264	-8.096270	0.	0.	0.	-1.767374	-0.158109	-3.876025	1.328663	-2.060790	6.007592	2.093695	2.655683	7.500886	0.	0.	0.	1.263209	-5.185538	-1.882991	1.234002	-1.470749	-1.897182	5.254491	0.627361	-1.801338	63.545288	-61.491497	35.105133	-1.169558	-13.442697	12.993410	11.574232	9.830657	15.179677	-2.823545	1.112091	6.781806	-2.672498	-50.923351	17.291800	16.428474	-34.530022	10.145988	-15.663756	-5.896361	0.721371	-0.946018	3.854409	4.647337	-7.225808	1.337600	7.606264	
1.523129	100.683368	7.266853	0.282806	2.834839	-7.052999	0.068694	2.450561	5.966819	1.367802	-0.166315	9.607841	-4.204545	-0.942836	-7.835846	0.	0.	0.	-1.683153	0.055405	-3.666603	1.287727	-2.166455	6.094054	1.894010	2.380045	7.300016	0.	0.	0.	1.420242	-4.812880	-2.035921	1.290028	-1.419468	-1.739464	5.138257	0.608594	-1.667169	61.890305	-60.265636	34.087284	-1.638479	-16.748466	12.147587	12.844124	9.795720	15.362979	-2.786679	1.173672	6.740306	-3.671664	-50.037392	16.042273	18.204575	-36.409363	11.888767	-16.517920	-6.979900	1.035357	-0.665164	3.996584	5.026965	-7.690786	-0.311000	7.743146	
1.451352	100.661742	7.161859	0.283493	2.611817	-7.046827	-0.057371	2.740496	5.563665	1.468488	-0.341755	9.871660	-4.159486	-0.993177	-7.715581	0.	0.	0.	-1.634122	0.281165	-3.480564	1.233981	-2.243037	5.800986	1.859442	2.279073	7.411892	0.	0.	0.	1.541749	-4.459590	-2.206064	1.327243	-1.292552	-1.634604	5.072646	0.574267	-1.608309	59.926311	-58.612553	32.670471	-2.152901	-20.873196	11.270177	14.520904	9.631967	15.383034	-2.690298	1.224828	6.695332	-4.561541	-49.101719	14.899027	19.982533	-38.380890	13.585279	-17.042217	-8.273630	1.318336	-0.669215	3.852764	5.185061	-7.904026	-1.840752	8.138786	
1.406868	100.668040	7.093092	0.303795	2.486414	-7.031839	-0.125838	2.815612	5.314663	1.521872	-0.327062	9.993239	-4.142100	-1.019323	-7.643138	0.	0.	0.	-1.648966	0.380546	-3.340222	1.239581	-2.250421	5.530219	1.883814	2.272806	7.517179	0.	0.	0.	1.624234	-4.234076	-2.293914	1.400962	-1.152260	-1.633781	5.059915	0.514616	-1.573986	57.493835	-56.489601	30.590294	-2.578845	-26.056170	10.765947	16.300343	9.459617	15.319180	-2.554848	1.283532	6.661594	-5.285370	-47.995041	14.006504	21.699520	-40.598515	15.335344	-17.546938	-9.554784	1.609643	-0.550343	3.631043	5.535958	-8.279684	-3.178962	8.345074	
1.380291	100.685393	7.023488	0.332744	2.531657	-7.020904	-0.079658	2.621217	5.304790	1.511393	-0.180267	9.849166	-4.140519	-1.020092	-7.518425	0.	0.	0.	-1.686259	0.228542	-3.323593	1.298183	-2.139894	5.517909	1.902286	2.293249	7.491055	0.	0.	0.	1.680601	-4.101875	-2.311098	1.557534	-1.131284	-1.719875	5.057752	0.531614	-1.573089	56.245975	-55.295010	29.599403	-3.002081	-30.670301	10.579848	17.860744	9.082253	15.368209	-2.404361	1.369598	6.659854	-5.748194	-47.489784	13.670285	23.065847	-42.463329	16.574289	-18.288731	-10.791534	1.990476	-0.442667	3.171847	5.987504	-8.643182	-4.175956	8.474706	
